<svg width="143" height="28" viewBox="0 0 143 28" fill="none" xmlns="http://www.w3.org/2000/svg">
<rect y="21" width="143" height="4" fill="#63AFCA"/>
<path d="M7.65381 23H4.43115V8.91309H0V6.3374H12.085V8.91309H7.65381V23ZM19.0405 21.7549V23H16.2573V10.6709H19.0405V16.0298C19.0405 16.8354 19.0202 17.694 18.9795 18.6055C19.3864 17.9463 19.9723 17.1406 20.7373 16.1885L23.8989 12.2578V10.6709H26.6821V23H23.8989V17.9341C23.8989 16.925 23.9274 16.0379 23.9844 15.2729C23.5938 15.9077 23.0566 16.6564 22.373 17.519L19.0405 21.7549ZM41.8896 23H38.7158L36.1035 18.5078L33.2471 23H30.8545L34.9561 16.6523L31.4038 10.6709H34.5898L36.6162 14.2964L38.9233 10.6709H41.2549L37.7759 16.0176L41.8896 23ZM48.8452 21.7549V23H46.062V10.6709H48.8452V16.0298C48.8452 16.8354 48.8249 17.694 48.7842 18.6055C49.1911 17.9463 49.777 17.1406 50.542 16.1885L53.7036 12.2578V10.6709H56.4868V23H53.7036V17.9341C53.7036 16.925 53.7321 16.0379 53.7891 15.2729C53.3984 15.9077 52.8613 16.6564 52.1777 17.519L48.8452 21.7549ZM65.1147 21.7549V23H62.3315V10.6709H65.1147V16.0298C65.1147 16.8354 65.0944 17.694 65.0537 18.6055C65.4606 17.9463 66.0465 17.1406 66.8115 16.1885L69.9731 12.2578V10.6709H72.7563V23H69.9731V17.9341C69.9731 16.925 70.0016 16.0379 70.0586 15.2729C69.668 15.9077 69.1309 16.6564 68.4473 17.519L65.1147 21.7549ZM63.8452 5.23877H65.4443C65.5908 6.31299 66.3029 6.8501 67.5806 6.8501C68.8175 6.8501 69.5093 6.31299 69.6558 5.23877H71.2549C71.2142 6.17464 70.8561 6.9681 70.1807 7.61914C69.5052 8.26204 68.6182 8.5835 67.5195 8.5835C66.4697 8.5835 65.603 8.27832 64.9194 7.66797C64.2358 7.05762 63.8778 6.24788 63.8452 5.23877ZM90.0122 17.6045V15.688C91.3468 15.688 92.1851 15.5252 92.5269 15.1997C92.8687 14.866 93.0396 14.4795 93.0396 14.04C93.0396 13.5762 92.8768 13.1978 92.5513 12.9048C92.2257 12.6118 91.766 12.4653 91.1719 12.4653C89.8942 12.4653 89.1333 13.0757 88.8892 14.2964L86.3501 13.8447C86.8953 11.5579 88.5718 10.4146 91.3794 10.4146C92.8931 10.4146 94.0405 10.7319 94.8218 11.3667C95.603 12.0015 95.9937 12.8031 95.9937 13.7715C95.9937 15.0085 95.2327 15.8996 93.7109 16.4448C95.4769 16.9168 96.3599 17.9056 96.3599 19.4111C96.3599 20.5098 95.9326 21.4253 95.0781 22.1577C94.2318 22.8901 93.0111 23.2563 91.416 23.2563C88.4863 23.2563 86.7 21.999 86.0571 19.4844L88.6206 19.0327C88.9543 20.4976 89.8047 21.23 91.1719 21.23C91.8717 21.23 92.417 21.0591 92.8076 20.7173C93.2064 20.3674 93.4058 19.8994 93.4058 19.3135C93.4058 18.874 93.2715 18.5119 93.0029 18.2271C92.7344 17.9341 92.3885 17.7591 91.9653 17.7021C91.5503 17.637 90.8993 17.6045 90.0122 17.6045ZM101.423 23V10.6709H107.832C109.313 10.6709 110.33 10.9842 110.884 11.6108C111.437 12.2375 111.714 12.9455 111.714 13.7349C111.714 15.1021 110.92 16.0216 109.333 16.4937C111.222 16.9575 112.166 17.987 112.166 19.582C112.166 20.5911 111.84 21.4131 111.189 22.0479C110.538 22.6826 109.618 23 108.43 23H101.423ZM104.207 15.7368H107.393C108.475 15.7368 109.016 15.216 109.016 14.1743C109.016 13.1896 108.475 12.6973 107.393 12.6973H104.207V15.7368ZM104.207 20.8394H107.393C108.092 20.8394 108.589 20.701 108.882 20.4243C109.175 20.1395 109.321 19.7041 109.321 19.1182C109.321 17.9626 108.678 17.3848 107.393 17.3848H104.207V20.8394ZM126.409 10.6709L121.611 24.709C121.318 25.5716 120.916 26.2389 120.403 26.7109C119.898 27.1911 119.182 27.4312 118.254 27.4312C117.888 27.4312 117.355 27.4027 116.655 27.3457V25.1362L117.986 25.1606C118.572 25.1606 119.003 25.063 119.28 24.8677C119.565 24.6805 119.788 24.3428 119.951 23.8545C120.114 23.3662 120.195 23.0814 120.195 23C120.195 22.9512 120.11 22.6989 119.939 22.2432L115.703 10.6709H118.621L121.611 18.8008L124.187 10.6709H126.409ZM137.673 14.9434L141.97 23H138.979L135.745 17.043L133.547 19.3623V23H130.764V10.6709H133.547V14.333C133.547 15.1224 133.519 15.8263 133.462 16.4448C133.869 15.9077 134.255 15.4479 134.622 15.0654L138.76 10.6709H141.494L137.673 14.9434Z" fill="#171717"/>
</svg>
